<svg width="74" height="74" viewBox="0 0 74 74" fill="none" xmlns="http://www.w3.org/2000/svg">
<path d="M37.0001 47.7917C43.8142 47.7917 49.3334 42.2725 49.3334 35.4584V26.9792V18.5C49.3334 11.6859 43.8142 6.16669 37.0001 6.16669C30.1859 6.16669 24.6667 11.6859 24.6667 18.5V35.4584C24.6667 42.2725 30.1859 47.7917 37.0001 47.7917Z" stroke="#DFDFEC" stroke-width="5" stroke-linecap="round" stroke-linejoin="round"/>
<path d="M13.4126 29.7542V34.9958C13.4126 48.0075 23.9884 58.5833 37.0001 58.5833C50.0118 58.5833 60.5876 48.0075 60.5876 34.9958V29.7542" stroke="#DFDFEC" stroke-width="5" stroke-linecap="round" stroke-linejoin="round"/>
<path d="M32.7141 19.8258C35.4891 18.8083 38.5108 18.8083 41.2858 19.8258" stroke="#DFDFEC" stroke-width="5" stroke-linecap="round" stroke-linejoin="round"/>
<path d="M34.5334 26.3625C36.1676 25.9308 37.8634 25.9308 39.4976 26.3625" stroke="#DFDFEC" stroke-width="5" stroke-linecap="round" stroke-linejoin="round"/>
<path d="M37 58.5833V67.8333" stroke="#DFDFEC" stroke-width="5" stroke-linecap="round" stroke-linejoin="round"/>
</svg>
